<?xml version="1.0" encoding="UTF-8"?>
<svg id="Layer_1" data-name="Layer 1" xmlns="http://www.w3.org/2000/svg" xmlns:xlink="http://www.w3.org/1999/xlink" viewBox="0 0 418 501.6">
  <defs>
    <style>
      .cls-1 {
        fill: #ee7601;
      }

      .cls-2 {
        fill: url(#linear-gradient-2);
      }

      .cls-3 {
        fill: #d80912;
      }

      .cls-4 {
        fill: #fdfdfd;
      }

      .cls-5 {
        fill: #fcc200;
      }

      .cls-6 {
        fill: url(#linear-gradient);
      }

      .cls-7 {
        fill: #14215a;
      }
    </style>
    <linearGradient id="linear-gradient" x1="206.51" y1="264.08" x2="322" y2="306.11" gradientTransform="translate(0 501.6) scale(1 -1)" gradientUnits="userSpaceOnUse">
      <stop offset="0" stop-color="#97d2f0"/>
      <stop offset=".04" stop-color="#8acff0"/>
      <stop offset=".14" stop-color="#72c9f0"/>
      <stop offset=".25" stop-color="#60c5f0"/>
      <stop offset=".37" stop-color="#56c3f0"/>
      <stop offset=".51" stop-color="#53c2f0"/>
      <stop offset=".57" stop-color="#57c3f0"/>
      <stop offset=".63" stop-color="#63c7f1"/>
      <stop offset=".7" stop-color="#77cdf2"/>
      <stop offset=".76" stop-color="#94d6f3"/>
      <stop offset=".83" stop-color="#b8e1f5"/>
      <stop offset=".84" stop-color="#bde3f5"/>
      <stop offset=".86" stop-color="#b1ddf1"/>
      <stop offset=".9" stop-color="#92cce5"/>
      <stop offset=".95" stop-color="#60b2d3"/>
      <stop offset="1" stop-color="#2f98c1"/>
    </linearGradient>
    <linearGradient id="linear-gradient-2" x1="171.17" y1="222.3" x2="171.17" y2="414.28" gradientTransform="translate(0 501.6) scale(1 -1)" gradientUnits="userSpaceOnUse">
      <stop offset="0" stop-color="#2f98c1"/>
      <stop offset="0" stop-color="#389dc4"/>
      <stop offset=".06" stop-color="#7fc2de"/>
      <stop offset=".11" stop-color="#acdaef"/>
      <stop offset=".13" stop-color="#bde3f5"/>
      <stop offset=".14" stop-color="#b3e0f5"/>
      <stop offset=".18" stop-color="#94d7f3"/>
      <stop offset=".22" stop-color="#7acff2"/>
      <stop offset=".27" stop-color="#66c9f1"/>
      <stop offset=".32" stop-color="#58c4f0"/>
      <stop offset=".39" stop-color="#4fc2f0"/>
      <stop offset=".51" stop-color="#4dc1f0"/>
      <stop offset=".6" stop-color="#50c2f0"/>
      <stop offset=".67" stop-color="#5ac5f1"/>
      <stop offset=".73" stop-color="#6bcaf1"/>
      <stop offset=".79" stop-color="#82d1f2"/>
      <stop offset=".85" stop-color="#a0daf4"/>
      <stop offset=".89" stop-color="#bde3f5"/>
      <stop offset=".91" stop-color="#b1ddf1"/>
      <stop offset=".94" stop-color="#92cce5"/>
      <stop offset=".97" stop-color="#60b2d3"/>
      <stop offset="1" stop-color="#2f98c1"/>
    </linearGradient>
  </defs>
  <path class="cls-5" d="m0,250.81V17.54C0,7.09,7.12,0,17.61,0h382.76c10.57,0,17.63,7.08,17.63,17.7v466.19c0,10.7-7.04,17.71-17.79,17.71-127.65,0-255.29,0-382.94,0-8.93,0-15.65-5.63-17.11-14.38-.17-1.03-.16-2.09-.16-3.14C0,406.32,0,328.56,0,250.81Z"/>
  <g>
    <path class="cls-7" d="m371.1,250.98c0,65.56,0,131.12,0,196.68,0,.82.02,1.64-.03,2.45-.17,3.2-2.61,5.69-5.81,5.93-.52.04-1.05.02-1.58.02-103.16,0-206.31,0-309.47-.01-.98,0-2-.06-2.93-.33-2.57-.73-4.2-2.86-4.36-5.52-.04-.7-.03-1.4-.03-2.1,0-131.53,0-263.06,0-394.59,0-.64,0-1.29.02-1.93.17-3.38,2.7-5.89,6.08-6.03.47-.02.93,0,1.4,0,103.1,0,206.2,0,309.3.01.98,0,2,.05,2.93.3,2.66.73,4.3,2.88,4.45,5.63.04.82.03,1.63.03,2.45,0,65.68,0,131.36,0,197.03Z"/>
    <path class="cls-5" d="m.06,250.81V17.54C.06,7.09,7.17,0,17.67,0h382.65c10.57,0,17.62,7.08,17.62,17.7v466.19c0,10.7-7.04,17.71-17.78,17.71-127.61,0-255.22,0-382.83,0-8.92,0-15.64-5.63-17.11-14.38-.17-1.03-.16-2.09-.16-3.14,0-77.76,0-155.51,0-233.27Zm397.9-.06c0-73.09,0-146.17,0-219.26,0-6.77-4.96-11.87-11.57-11.88-118.27,0-236.54,0-354.8,0-.69,0-1.41.02-2.08.18-6.07,1.36-9.48,5.71-9.48,12.06,0,145.59,0,291.18,0,436.76,0,.64,0,1.28,0,1.93.07,6.37,5.12,11.43,11.48,11.44,118.33,0,236.65,0,354.98,0,.64,0,1.29-.01,1.91-.15,6.05-1.31,9.56-5.72,9.56-12,0-73.03,0-146.05,0-219.08Z"/>
    <path class="cls-1" d="m397.96,250.75c0,73.03,0,146.05,0,219.08,0,6.28-3.5,10.69-9.56,12-.62.13-1.27.15-1.91.15-118.33,0-236.65,0-354.98,0-6.36,0-11.41-5.06-11.48-11.44,0-.64,0-1.28,0-1.93,0-145.59,0-291.17,0-436.76,0-6.35,3.41-10.7,9.48-12.06.67-.15,1.39-.18,2.08-.18,118.27,0,236.54,0,354.8,0,6.6,0,11.57,5.1,11.57,11.88,0,73.09,0,146.17,0,219.26Zm-15.01.05v-60.25c0-48.98,0-97.96-.01-146.94,0-1.16.02-2.36-.28-3.46-1.09-4.01-4.26-6.15-8.86-6.15-109.87,0-219.73,0-329.6,0-.35,0-.7-.01-1.05,0-3.82.19-6.98,2.65-7.87,6.31-.3,1.22-.23,2.55-.23,3.82,0,137.77,0,275.55,0,413.32,0,.82-.03,1.64.03,2.45.04.57.13,1.16.3,1.71,1.23,3.96,4.28,5.98,9.01,5.98,109.75,0,219.5,0,329.25,0,.35,0,.72.08,1.05-.02,1.55-.45,3.24-.68,4.58-1.48,2.93-1.76,3.73-4.61,3.73-7.95-.04-69.12-.03-138.24-.03-207.36Z"/>
    <path class="cls-3" d="m382.95,250.8c0,69.12-.01,138.24.03,207.36,0,3.34-.8,6.19-3.73,7.95-1.34.8-3.04,1.03-4.58,1.48-.32.09-.7.02-1.05.02H44.36c-4.73,0-7.78-2.02-9.01-5.98-.17-.55-.26-1.13-.3-1.71-.05-.81-.03-1.63-.03-2.45,0-137.77,0-275.55,0-413.32,0-1.28-.07-2.6.23-3.82.89-3.66,4.05-6.12,7.87-6.31.35-.02.7,0,1.05,0,109.87,0,219.74,0,329.6,0,4.6,0,7.77,2.14,8.86,6.15.3,1.1.28,2.3.28,3.46.01,48.98.01,97.96.01,146.94,0,20.08,0,40.16,0,60.25Zm-11.85.18c0-65.68,0-131.35,0-197.03,0-.82.02-1.64-.03-2.45-.14-2.75-1.79-4.9-4.45-5.63-.94-.26-1.96-.3-2.93-.3-103.1-.01-206.2-.01-309.3-.01-.47,0-.93-.01-1.4,0-3.38.14-5.91,2.65-6.08,6.03-.03.64-.02,1.28-.02,1.93,0,131.53,0,263.06,0,394.59,0,.7-.01,1.4.03,2.1.16,2.66,1.79,4.79,4.36,5.52.93.27,1.95.33,2.93.33,103.16.01,206.31.01,309.47.01.53,0,1.05.02,1.58-.02,3.2-.24,5.64-2.73,5.81-5.93.04-.82.03-1.63.03-2.45,0-65.56,0-131.12,0-196.68Z"/>
    <g>
      <path class="cls-4" d="m234.68,389.4v-76.81c.38-.04.76-.13,1.15-.13,10.97,0,21.95-.04,32.92.02,5.5.03,10.94.77,16.19,2.48,10.77,3.52,17.72,10.77,20.43,21.78,2.46,9.98,2.26,20.02-.47,29.93-3.14,11.39-10.71,18.24-22.06,21.1-4.55,1.15-9.19,1.64-13.86,1.66-11.03.06-22.06.02-33.1.02-.34,0-.68-.03-1.19-.05Zm23.28-16.48c4.23-.2,8.39-.11,12.46-.66,6.64-.9,11.02-4.69,12.73-11.29,1.56-6.02,1.72-12.12.49-18.2-1.31-6.49-5.06-10.87-11.58-12.66-4.62-1.27-9.33-.93-14.1-.95v43.76Z"/>
      <path class="cls-4" d="m103.77,375.35c-1.19,4.63-2.39,9.29-3.61,14.03h-24.81c8.02-26.02,16.8-51.7,27.13-76.86h30.43c10.33,25.15,19.09,50.78,27.13,76.82h-24.81c-1.18-4.59-2.38-9.25-3.61-13.99h-27.85Zm14.07-48.59c-.17,0-.33-.01-.5-.02-3.37,10.56-6.73,21.12-10.14,31.81h20.83c-3.16-10.78-6.41-21.38-10.19-31.79Z"/>
      <path class="cls-4" d="m167.4,312.51h23.25v1.92c0,16.22,0,32.44.01,48.66,0,1.57.11,3.15.34,4.7.35,2.34,1.8,3.76,4.11,4.17,1.37.24,2.78.36,4.17.37,6.94.04,13.89.02,20.83.02h1.81c1.15,5.7,2.28,11.28,3.43,16.99-.54.05-.97.12-1.41.12-12.25,0-24.5.06-36.75-.04-2.42-.02-4.91-.36-7.23-1.02-7.01-2-10.77-7-12.06-13.98-.34-1.82-.47-3.71-.47-5.57-.03-18.38-.02-36.75-.02-55.13,0-.35,0-.69,0-1.2Z"/>
      <path class="cls-4" d="m319.64,312.53h23.02v76.81h-23.02v-76.81Z"/>
    </g>
    <path class="cls-6" d="m299.72,185.27c8.23-.02,14.08,3.7,17.61,11.12,3.81,8,7.62,15.99,11.43,23.98.12.25.22.51.45,1.03-1.86-1.71-3.38-2.85-5.08-3.89-3.4-2.07-7.26-2.39-11.13-2.4-3.99,0-45.27-.02-84.26-.02l10.13-29.82c30.25,0,59.37,0,60.85,0Zm46.99,78.28c-3.81-7.99-7.63-15.99-11.43-23.98-3.53-7.42-9.37-11.13-17.61-11.12-2.03,0-55.87,0-93.47.01l-10.13,29.81c44.3,0,111.71.02,116.87.03,3.87,0,7.73.33,11.13,2.4,1.71,1.04,3.23,2.17,5.08,3.89-.23-.53-.33-.78-.45-1.03Zm-103.31-91.57c21.67,0,46.14.02,51.96.03,3.87,0,7.73.33,11.13,2.4,1.71,1.04,3.23,2.17,5.08,3.89-.23-.52-.33-.78-.45-1.03-3.81-7.99-7.63-15.99-11.43-23.98-3.53-7.42-9.37-11.13-17.61-11.12-2.17,0-15.81,0-28.55.01l-10.13,29.81Z"/>
    <path class="cls-2" d="m225.47,87.32c-4.98,1.06-9,3.72-11.73,7.72-2.5,3.66-4.57,7.76-6.09,11.93-4.27,11.74-8.19,23.62-12.21,35.45-8.71,25.63-17.4,51.26-26.1,76.89-2.58,7.61-5.08,15.25-7.74,22.82-1.97,5.59-3.94,11.18-6.05,16.71,0,.02-.01.03-.02.05-.44,1.27-.93,2.52-1.46,3.74-.16.41-.32.82-.48,1.22-1.81,4.51-4.56,8.52-8.56,11.49-.38.28-.77.55-1.16.8-3.05,2.05-6.55,3.13-10.57,3.14-4.26,0-8.53,0-12.79,0h-.14c-4.39,0-8.78,0-13.17,0h-1.11c4.98-1.06,9-3.72,11.73-7.72,2.5-3.66,4.57-7.76,6.09-11.93,4.27-11.74,8.19-23.62,12.21-35.45,8.71-25.63,17.4-51.26,26.1-76.89,2.58-7.61,5.08-15.25,7.74-22.82,1.97-5.59,3.94-11.18,6.05-16.71,0-.02.01-.03.02-.05.44-1.27.93-2.52,1.46-3.74.16-.41.32-.82.48-1.22,1.81-4.51,4.56-8.52,8.56-11.49.38-.28.77-.55,1.16-.8,3.05-2.05,6.56-3.13,10.57-3.14,4.26,0,8.53,0,12.79,0h.14c4.39,0,8.78,0,13.17,0,.37,0,.73,0,1.1,0Zm-47.52,0c-4.39,0-8.78,0-13.17,0h-.14c-4.26,0-8.53,0-12.79,0-4.01,0-7.52,1.09-10.57,3.14-.39.25-.78.52-1.16.8-4,2.97-6.75,6.98-8.56,11.49-.16.41-.32.82-.48,1.22-.53,1.23-1.01,2.48-1.46,3.74,0,.02-58.8,171.57-58.8,171.57h3.28c4.26,0,8.53,0,12.79,0,4.01,0,7.52-1.09,10.57-3.14.39-.25.78-.52,1.16-.8,4-2.97,6.75-6.98,8.56-11.49.16-.41.32-.82.48-1.22.53-1.23,1.01-2.48,1.46-3.74,0-.02.01-.03.02-.05,2.11-5.53,4.08-11.12,6.05-16.71,2.67-7.58,5.16-15.22,7.74-22.82,8.69-25.63,17.39-51.26,26.1-76.89,4.02-11.83,7.93-23.71,12.21-35.45,1.52-4.17,3.59-8.27,6.09-11.93,2.73-4,6.75-6.66,11.73-7.72-.37,0-.74,0-1.1,0Zm92.46,0c-4.39,0-8.78,0-13.16,0h-.14c-4.26,0-8.53,0-12.79,0-4.01,0-7.52,1.09-10.57,3.14-.39.25-.78.52-1.16.8-4,2.97-6.75,6.98-8.56,11.49-.16.41-.32.82-.48,1.22-.53,1.23-1.01,2.48-1.46,3.74,0,.02-.01.03-.02.05-2.11,5.53-4.08,11.12-6.05,16.71-2.67,7.58-5.16,15.22-7.74,22.82-8.69,25.63-17.39,51.26-26.1,76.89-4.02,11.83-7.93,23.71-12.21,35.45-1.52,4.17-3.59,8.27-6.09,11.93-2.73,4-6.75,6.66-11.73,7.72h1.11c4.39,0,8.78,0,13.17,0h.14c4.26,0,8.53,0,12.79,0,4.01,0,7.52-1.09,10.57-3.14.39-.25.78-.52,1.16-.8,4-2.97,6.75-6.98,8.56-11.49.16-.41.32-.82.48-1.22.53-1.23,1.01-2.48,1.46-3.74,0-.02.01-.03.02-.05,2.11-5.53,4.08-11.12,6.05-16.71,2.67-7.58,5.16-15.22,7.74-22.82,8.69-25.63,17.38-51.26,26.1-76.89,4.02-11.83,7.93-23.71,12.21-35.45,1.52-4.17,3.59-8.27,6.09-11.93,2.73-4,6.75-6.66,11.73-7.72-.37,0-.74,0-1.1,0Z"/>
  </g>
</svg>