<?xml version="1.0" encoding="UTF-8"?>
<svg id="Layer_1" data-name="Layer 1" xmlns="http://www.w3.org/2000/svg" viewBox="0 0 2500.02 692.64">
  <defs>
    <style>
      .cls-1 {
        fill: #ff5a00;
      }

      .cls-2 {
        fill: #29007c;
      }
    </style>
  </defs>
  <path class="cls-1" d="m2484.61,602.71c0-38.51-27.31-66.72-64.94-66.72s-64.91,28.2-64.91,66.72,27.34,66.61,64.91,66.61,64.94-28.2,64.94-66.61Zm-82,3.42v43.58h-14.08v-96.09h34.98c20.5,0,29.91,8.95,29.91,26.41,0,10.75-7.27,19.27-16.62,20.5v.41c8.12,1.3,11.11,8.55,12.78,21.81,1.28,8.59,2.98,23.5,6.05,27h-16.66c-3.87-9.03-3.48-21.81-6.47-32.52-2.47-8.14-6.81-11.11-16.14-11.11h-13.67v.05l-.08-.03h0Zm17.45-12.42c13.67,0,17.58-7.28,17.58-13.7,0-7.59-3.91-13.59-17.58-13.59h-17.45v27.33h17.45v-.03Zm-80.78,9c0-47.45,37.67-79.53,80.33-79.53s80.4,32.08,80.4,79.53-37.61,79.47-80.4,79.47-80.33-32.11-80.33-79.47Z"/>
  <path class="cls-1" d="m2060.9,668.32l-92.61-103.86-91.8,103.86h-193.15l188.78-212.09-188.78-212.15h199.18l93.55,103.06,90.01-103.06h192.22l-187.84,211.26,190.45,212.98h-200.01Zm-748.45,0V0h370.9v148.97h-213.79v95.11h213.79v143.34h-213.79v131.56h213.79v149.34h-370.9Z"/>
  <path class="cls-2" d="m1155.92,0v273.51h-1.73c-34.64-39.81-77.94-53.69-128.14-53.69-102.87,0-180.37,69.98-207.57,162.43-31.03-101.89-111.04-164.34-229.67-164.34-96.36,0-172.42,43.23-212.15,113.7v-87.56h-199.14v-95.08h217.34V.03H0v668.28h177.51v-280.9h176.93c-5.45,21.6-8.17,43.8-8.11,66.08,0,139.34,106.48,237.26,242.43,237.26,114.28,0,189.65-53.7,229.48-151.47h-152.14c-20.56,29.42-36.19,38.11-77.33,38.11-47.69,0-88.84-41.62-88.84-90.9h309.78c13.44,110.7,99.69,206.15,218.06,206.15,51.06,0,97.81-25.11,126.39-67.53h1.72v43.3h156.51V.03h-156.48V0h0ZM504.88,389.41c9.89-42.47,42.81-70.22,83.9-70.22,45.25,0,76.5,26.89,84.7,70.22h-168.61Zm556.05,177.2c-57.67,0-93.51-53.73-93.51-109.86,0-60,31.19-117.64,93.51-117.64s90.44,57.67,90.44,117.64c0,56.84-27.28,109.86-90.44,109.86Z"/>
</svg>