<?xml version="1.0" encoding="UTF-8"?>
<svg id="Layer_1" data-name="Layer 1" xmlns="http://www.w3.org/2000/svg" viewBox="0 0 874.16 235.19">
  <defs>
    <style>
      .cls-1 {
        fill: #ffdb00;
      }
    </style>
  </defs>
  <path d="m0,0h874.16v235.19H0V0Z"/>
  <path class="cls-1" d="m20.87,20.87h832.25v193.28H20.87V20.87Z"/>
  <path d="m301.8,157.11v-72.98h27.41c12.91,0,23.1,3.82,23.1,18.32,0,7.49-3.82,12.91-7.49,15.93,6.22,2.07,9.56,8.76,9.56,16.73,0,16.41-9.72,21.99-24.7,21.99h-27.89Zm18.8-30.43v13.54h8.29c4.62,0,8.13-1.27,8.13-6.69,0-6.37-4.46-6.85-10.36-6.85h-6.05Zm0-25.5v12.11h7.81c3.82,0,6.53-2.07,6.53-6.37,0-5.74-3.66-5.74-7.65-5.74h-6.69Zm87.96,55.93v-72.98h18.8v24.7h17.85v-24.7h18.8v72.98h-18.8v-28.2h-17.85v28.36h-18.8v-.16Zm68.84-72.98h18.8v43.66c0,7.17,1.12,13.38,8.92,13.38,6.69,0,8.76-5.42,8.76-13.38v-43.66h18.8v41.27c0,23.42-8.45,33.62-27.57,33.62-17.85,0-27.73-8.6-27.73-33.78v-41.11Zm104.37,39.84l-.64-16.57v-23.26h18.01v72.98h-17.69l-20.4-39.68.64,16.57v23.1h-18.01v-72.98h17.69l20.4,39.84Zm25.34-39.84h52.58v19.12h-16.89v53.86h-18.8v-53.86h-16.89v-19.12Zm-334.14,54.97c-5.42,0-9.88,4.46-9.88,9.88s4.46,9.88,9.88,9.88,9.88-4.46,9.88-9.88-4.3-9.88-9.88-9.88h0Zm96.24,0c-5.42,0-9.88,4.46-9.88,9.88s4.46,9.88,9.88,9.88,9.88-4.46,9.88-9.88-4.46-9.88-9.88-9.88Zm-145.96-3.03c5.74,7.01,11.31,7.01,14.5,6.05,3.67-1.12,4.78-3.98,4.78-9.88v-48.12h18.8v44.78c0,19.28-7.17,29.16-22.31,30.12-14.66.8-18.64-1.91-26.93-10.99l11.15-11.95Z"/>
</svg>