<?xml version="1.0" encoding="UTF-8"?>
<svg id="Layer_1" data-name="Layer 1" xmlns="http://www.w3.org/2000/svg" viewBox="0 0 655.88 173.68">
  <defs>
    <style>
      .cls-1 {
        fill: #fff;
      }

      .cls-2, .cls-3 {
        fill-rule: evenodd;
      }

      .cls-2, .cls-4 {
        fill: #007dc3;
      }

      .cls-3 {
        fill: #fdbb30;
      }
    </style>
  </defs>
  <path class="cls-2" d="m365.5,90.98c0,1.26-.13,2.55-.46,3.68-1.42,4.72-6.31,8.72-12.43,8.72-5.08,0-9.15-2.91-9.15-9.02,0-9.36,10.31-11.94,22.05-11.89v8.51h0Zm18.39-16.31c0-15.44-6.59-29.02-28.87-29.02-11.44,0-20.52,3.21-25.47,6.07l3.62,12.41c4.54-2.87,11.75-5.23,18.59-5.23,11.3-.03,13.14,6.39,13.14,10.52v.96c-24.63-.03-40.21,8.5-40.21,25.88,0,10.62,7.94,20.57,21.71,20.57,8.49,0,15.58-3.38,19.83-8.8h.42s2.81,11.76,18.31,7.28c-.8-4.92-1.07-10.15-1.07-16.43v-24.22h0Z"/>
  <path class="cls-2" d="m0,24.63s16.1,65.97,18.68,76.67c2.99,12.52,8.4,17.11,23.97,14.02l10.05-40.92c2.55-10.16,4.26-17.4,5.89-27.74h.29c1.16,10.44,2.8,17.62,4.89,27.79,0,0,4.09,18.56,6.19,28.31,2.1,9.74,7.94,15.89,23.21,12.55l23.96-90.68h-19.34l-8.18,39.2c-2.2,11.41-4.21,20.33-5.73,30.77h-.28c-1.4-10.33-3.17-18.9-5.41-30.01l-8.52-39.95h-20.15l-9.11,38.94c-2.58,11.83-5,21.4-6.54,31.47h-.28c-1.58-9.5-3.67-21.5-5.93-32.96,0,0-5.41-27.86-7.31-37.46H0Z"/>
  <path class="cls-2" d="m153.69,90.98c0,1.26-.11,2.55-.46,3.68-1.42,4.72-6.31,8.72-12.42,8.72-5.09,0-9.15-2.91-9.15-9.02,0-9.36,10.29-11.94,22.02-11.89v8.51h0Zm18.39-16.31c0-15.44-6.58-29.02-28.87-29.02-11.44,0-20.52,3.21-25.48,6.07l3.64,12.41c4.53-2.87,11.74-5.23,18.58-5.23,11.3-.03,13.15,6.39,13.15,10.52v.96c-24.65-.03-40.21,8.5-40.21,25.88,0,10.62,7.93,20.57,21.7,20.57,8.48,0,15.58-3.38,19.83-8.8h.42s2.82,11.76,18.33,7.28c-.82-4.92-1.09-10.15-1.09-16.43v-24.22h0Z"/>
  <polygon class="cls-2" points="202.78 96.05 202.78 24.63 184.37 24.63 184.37 115.32 202.78 115.32 202.78 96.05 202.78 96.05"/>
  <path class="cls-2" d="m443.71,24.63v66.9c0,9.2,1.72,15.68,5.45,19.63,3.24,3.45,8.57,5.68,14.97,5.68,5.46,0,10.82-1.03,13.34-1.97l-.24-14.39c-1.88.46-4.04.82-6.99.82-6.27,0-8.38-4-8.38-12.3v-25.57h16.03v-17.35h-16.03v-21.44h-18.15Z"/>
  <path class="cls-2" d="m396.16,47.19v68.12h18.99v-34.9c0-1.87.12-3.52.41-5.02,1.41-7.3,6.99-11.96,15.03-11.96,2.2,0,3.77.23,5.47.47v-17.83c-1.42-.3-2.38-.43-4.18-.43-7.09,0-15.15,4.57-18.53,14.39h-.53v-12.84h-16.66Z"/>
  <path class="cls-2" d="m215.68,47.19v68.12h18.5v-39.95c0-1.88.22-3.86.88-5.58,1.53-4.02,5.27-8.74,11.25-8.74,7.47,0,10.96,6.32,10.96,15.44v38.83h18.49v-40.43c0-1.79.25-3.94.77-5.53,1.53-4.57,5.56-8.31,11.12-8.31,7.57,0,11.2,6.21,11.2,16.94v37.33h18.52v-40.13c0-21.17-10.75-29.54-22.88-29.54-5.38,0-9.61,1.35-13.44,3.7-3.23,1.98-6.11,4.79-8.63,8.49h-.27c-2.93-7.34-9.81-12.18-18.78-12.18-11.51,0-16.69,5.83-19.84,10.8h-.27v-9.25h-17.57Z"/>
  <path class="cls-3" d="m581.13,48.19c3.34,0,6.1-1.75,6.48-4.01l3.31-37.45c0-3.69-4.35-6.73-9.79-6.73s-9.78,3.04-9.78,6.73l3.31,37.45c.36,2.26,3.14,4.01,6.48,4.01h-.02Z"/>
  <path class="cls-3" d="m560.89,59.88c1.68-2.9,1.54-6.16-.22-7.6l-30.79-21.6c-3.2-1.85-8.01.37-10.72,5.1-2.73,4.72-2.25,9.99.94,11.85l34.08,15.87c2.13.79,5.04-.74,6.72-3.63v.02h0Z"/>
  <path class="cls-3" d="m601.39,59.87c1.68,2.9,4.57,4.43,6.71,3.63l34.09-15.87c3.2-1.86,3.66-7.13.93-11.85-2.72-4.72-7.52-6.95-10.73-5.1l-30.78,21.6c-1.76,1.44-1.88,4.71-.22,7.6v-.02h0Z"/>
  <path class="cls-3" d="m581.13,94.95c3.34,0,6.1,1.75,6.48,4l3.31,37.46c0,3.69-4.35,6.74-9.79,6.74s-9.78-3.05-9.78-6.74l3.31-37.46c.36-2.25,3.14-4,6.48-4h-.02Z"/>
  <path class="cls-3" d="m601.39,83.28c1.68-2.9,4.57-4.43,6.71-3.63l34.09,15.86c3.2,1.86,3.66,7.12.93,11.85-2.72,4.71-7.52,6.95-10.73,5.12l-30.78-21.6c-1.76-1.46-1.88-4.72-.22-7.62v.02h0Z"/>
  <path class="cls-3" d="m560.89,83.27c1.68,2.9,1.54,6.16-.22,7.62l-30.79,21.58c-3.2,1.85-8.01-.38-10.72-5.09-2.73-4.73-2.25-9.99.94-11.86l34.08-15.85c2.13-.81,5.04.71,6.72,3.62h0Z"/>
  <path class="cls-3" d="m645.31,118.6c.34.2.86.38,1.4.38.69,0,1.06-.31,1.06-.79,0-.45-.3-.7-1.04-.96-.95-.36-1.56-.86-1.56-1.69,0-.96.79-1.69,2.06-1.69.62,0,1.1.14,1.4.3l-.27.86c-.21-.12-.61-.29-1.15-.29-.68,0-.96.36-.96.7,0,.46.33.66,1.11.96,1,.37,1.49.89,1.49,1.72,0,.94-.7,1.75-2.2,1.75-.62,0-1.26-.17-1.58-.36l.24-.89h0Z"/>
  <path class="cls-3" d="m654.73,117.39c-.05-.75-.09-1.65-.09-2.44h-.02c-.18.71-.42,1.5-.69,2.23l-.84,2.52h-.82l-.78-2.49c-.22-.75-.43-1.54-.57-2.26h-.03c-.02.75-.07,1.68-.1,2.48l-.13,2.33h-.99l.39-5.81h1.39l.77,2.34c.21.67.38,1.37.54,2.01h.02c.15-.62.35-1.35.58-2.02l.8-2.33h1.38l.35,5.81h-1.04l-.11-2.38h0Z"/>
  <g>
    <path class="cls-4" d="m27.16,158.47l-1.88,6.78h-6.16l8.04-26.43h7.84l8.23,26.43h-6.47l-2.04-6.78h-7.57Zm6.7-4.47l-1.65-5.61c-.47-1.57-.94-3.53-1.33-5.1h-.08c-.39,1.57-.78,3.57-1.22,5.1l-1.57,5.61h5.84Z"/>
    <path class="cls-4" d="m45.12,137.42h5.96v10.98h.08c.63-.86,1.41-1.53,2.35-2,.9-.47,2-.74,3.1-.74,3.8,0,6.7,2.63,6.7,8.43v11.17h-5.96v-10.55c0-2.51-.86-4.23-3.1-4.23-1.57,0-2.55,1.02-2.98,2.12-.16.35-.2.86-.2,1.29v11.37h-5.96v-27.84Z"/>
    <path class="cls-4" d="m85.85,155.45c0,7.02-4.98,10.23-10.12,10.23-5.61,0-9.92-3.68-9.92-9.88s4.08-10.19,10.27-10.19c5.84,0,9.76,4.04,9.76,9.84Zm-13.88.2c0,3.29,1.37,5.76,3.92,5.76,2.35,0,3.8-2.31,3.8-5.8,0-2.82-1.1-5.72-3.8-5.72s-3.92,2.94-3.92,5.76Z"/>
    <path class="cls-4" d="m88.36,152.4c0-2.82-.04-4.67-.16-6.31h5.1l.24,3.53h.16c.98-2.82,3.29-4,5.17-4,.55,0,.82.04,1.25.12v5.61c-.47-.08-.94-.16-1.61-.16-2.2,0-3.69,1.18-4.08,3.02-.08.39-.12.86-.12,1.33v9.72h-5.96v-12.86Z"/>
    <path class="cls-4" d="m102.08,152.4c0-2.82-.04-4.67-.16-6.31h5.1l.24,3.53h.16c.98-2.82,3.29-4,5.17-4,.55,0,.82.04,1.25.12v5.61c-.47-.08-.94-.16-1.61-.16-2.2,0-3.69,1.18-4.08,3.02-.08.39-.12.86-.12,1.33v9.72h-5.96v-12.86Z"/>
    <path class="cls-4" d="m131.33,160.63c0,1.81.08,3.57.31,4.63h-5.37l-.35-1.92h-.12c-1.25,1.53-3.21,2.35-5.49,2.35-3.88,0-6.19-2.82-6.19-5.88,0-4.98,4.47-7.33,11.25-7.33v-.23c0-1.06-.55-2.51-3.49-2.51-1.96,0-4.04.67-5.29,1.45l-1.1-3.84c1.33-.75,3.96-1.72,7.45-1.72,6.39,0,8.39,3.76,8.39,8.31v6.7Zm-5.76-4.43c-3.14,0-5.57.75-5.57,3.02,0,1.53,1.02,2.27,2.35,2.27,1.45,0,2.7-.98,3.1-2.2.08-.31.12-.67.12-1.02v-2.08Z"/>
    <path class="cls-4" d="m134.85,160.08c1.1.67,3.37,1.41,5.14,1.41s2.55-.59,2.55-1.57-.59-1.49-2.78-2.23c-4-1.33-5.53-3.49-5.49-5.76,0-3.61,3.06-6.31,7.8-6.31,2.23,0,4.19.55,5.37,1.14l-1.02,4.12c-.86-.47-2.55-1.1-4.16-1.1-1.45,0-2.27.59-2.27,1.53s.74,1.41,3.1,2.24c3.65,1.25,5.14,3.14,5.17,5.92,0,3.61-2.78,6.23-8.27,6.23-2.51,0-4.74-.59-6.19-1.37l1.06-4.23Z"/>
    <path class="cls-4" d="m157.67,139.22c2.2-.35,5.06-.59,8.04-.59,5.06,0,8.35.94,10.86,2.82,2.74,2.04,4.47,5.29,4.47,9.96,0,5.06-1.84,8.55-4.35,10.7-2.78,2.31-7.06,3.41-12.23,3.41-3.1,0-5.33-.2-6.78-.39v-25.92Zm5.96,21.52c.51.12,1.37.12,2.08.12,5.45.04,9.02-2.94,9.02-9.25,0-5.49-3.21-8.39-8.39-8.39-1.29,0-2.2.12-2.71.23v17.29Z"/>
    <path class="cls-4" d="m189.9,140.75c0,1.65-1.22,2.98-3.22,2.98-1.88,0-3.1-1.33-3.1-2.98s1.25-2.98,3.18-2.98,3.1,1.29,3.14,2.98Zm-6.16,24.5v-19.17h5.96v19.17h-5.96Z"/>
    <path class="cls-4" d="m193.31,152.2c0-2.39-.08-4.39-.16-6.11h5.17l.28,2.66h.12c.78-1.25,2.71-3.1,5.92-3.1,3.92,0,6.86,2.63,6.86,8.27v11.33h-5.96v-10.62c0-2.47-.86-4.16-3.02-4.16-1.65,0-2.63,1.14-3.06,2.23-.16.39-.2.94-.2,1.49v11.06h-5.96v-13.06Z"/>
    <path class="cls-4" d="m219.69,157.57c.16,2.47,2.63,3.65,5.41,3.65,2.04,0,3.69-.27,5.29-.82l.78,4.04c-1.96.82-4.35,1.21-6.94,1.21-6.51,0-10.23-3.76-10.23-9.76,0-4.86,3.02-10.23,9.68-10.23,6.19,0,8.55,4.82,8.55,9.57,0,1.02-.12,1.92-.2,2.35h-12.35Zm7.02-4.08c0-1.45-.63-3.88-3.37-3.88-2.51,0-3.53,2.31-3.69,3.88h7.06Z"/>
    <path class="cls-4" d="m234.63,152.4c0-2.82-.04-4.67-.16-6.31h5.1l.24,3.53h.16c.98-2.82,3.29-4,5.17-4,.55,0,.82.04,1.25.12v5.61c-.47-.08-.94-.16-1.61-.16-2.2,0-3.69,1.18-4.08,3.02-.08.39-.12.86-.12,1.33v9.72h-5.96v-12.86Z"/>
    <path class="cls-4" d="m266.97,155.45c0,7.02-4.98,10.23-10.12,10.23-5.61,0-9.92-3.68-9.92-9.88s4.08-10.19,10.27-10.19c5.84,0,9.76,4.04,9.76,9.84Zm-13.88.2c0,3.29,1.37,5.76,3.92,5.76,2.35,0,3.8-2.31,3.8-5.8,0-2.82-1.1-5.72-3.8-5.72s-3.92,2.94-3.92,5.76Z"/>
    <path class="cls-4" d="m267.71,162.08c0-2.16,1.45-3.65,3.53-3.65s3.45,1.45,3.49,3.65c0,2.08-1.41,3.61-3.57,3.61-2,0-3.45-1.53-3.45-3.61Z"/>
    <path class="cls-4" d="m288.89,165.26l-8.47-26.43h6.55l3.22,11.17c.9,3.18,1.73,6.16,2.35,9.45h.12c.67-3.18,1.49-6.31,2.39-9.33l3.37-11.29h6.35l-8.9,26.43h-6.98Z"/>
    <path class="cls-4" d="m311.31,140.75c0,1.65-1.22,2.98-3.22,2.98-1.88,0-3.1-1.33-3.1-2.98s1.25-2.98,3.18-2.98,3.1,1.29,3.14,2.98Zm-6.16,24.5v-19.17h5.96v19.17h-5.96Z"/>
    <path class="cls-4" d="m319.15,146.09l2.59,8.9c.47,1.65.78,3.14,1.1,4.66h.12c.31-1.57.63-3.02,1.06-4.66l2.47-8.9h6.27l-7.13,19.17h-5.96l-6.98-19.17h6.47Z"/>
    <path class="cls-4" d="m338.32,157.57c.16,2.47,2.63,3.65,5.41,3.65,2.04,0,3.69-.27,5.29-.82l.78,4.04c-1.96.82-4.35,1.21-6.94,1.21-6.51,0-10.23-3.76-10.23-9.76,0-4.86,3.02-10.23,9.68-10.23,6.19,0,8.55,4.82,8.55,9.57,0,1.02-.12,1.92-.2,2.35h-12.35Zm7.02-4.08c0-1.45-.63-3.88-3.37-3.88-2.51,0-3.53,2.31-3.69,3.88h7.06Z"/>
    <path class="cls-4" d="m353.22,160.08c1.1.67,3.37,1.41,5.14,1.41s2.55-.59,2.55-1.57-.59-1.49-2.78-2.23c-4-1.33-5.53-3.49-5.49-5.76,0-3.61,3.06-6.31,7.8-6.31,2.23,0,4.19.55,5.37,1.14l-1.02,4.12c-.86-.47-2.55-1.1-4.16-1.1-1.45,0-2.27.59-2.27,1.53s.74,1.41,3.1,2.24c3.65,1.25,5.14,3.14,5.18,5.92,0,3.61-2.78,6.23-8.27,6.23-2.51,0-4.75-.59-6.2-1.37l1.06-4.23Z"/>
    <path class="cls-4" d="m398.38,155.14c-.12-3.17-.24-7.02-.24-10.86h-.08c-.86,3.37-1.96,7.14-2.98,10.23l-3.21,10.31h-4.67l-2.82-10.19c-.86-3.14-1.73-6.9-2.39-10.35h-.08c-.12,3.57-.27,7.65-.43,10.94l-.51,10.04h-5.53l1.69-26.43h7.96l2.59,8.82c.86,3.06,1.65,6.35,2.24,9.45h.16c.71-3.06,1.61-6.55,2.51-9.49l2.78-8.78h7.84l1.41,26.43h-5.8l-.43-10.12Z"/>
    <path class="cls-4" d="m412.53,157.57c.16,2.47,2.63,3.65,5.41,3.65,2.04,0,3.69-.27,5.29-.82l.78,4.04c-1.96.82-4.35,1.21-6.94,1.21-6.51,0-10.23-3.76-10.23-9.76,0-4.86,3.02-10.23,9.68-10.23,6.19,0,8.55,4.82,8.55,9.57,0,1.02-.12,1.92-.2,2.35h-12.35Zm7.02-4.08c0-1.45-.63-3.88-3.37-3.88-2.51,0-3.53,2.31-3.69,3.88h7.06Z"/>
    <path class="cls-4" d="m423.55,169.02c1.53-.12,2.79-.47,3.53-1.25.86-.9,1.18-2.43,1.18-6.23v-15.45h5.96v16.9c0,4.16-.9,6.7-2.71,8.35-1.76,1.65-4.55,2.35-7.37,2.35l-.59-4.66Zm10.82-28.27c0,1.65-1.22,2.98-3.21,2.98-1.88,0-3.1-1.33-3.1-2.98s1.25-2.98,3.18-2.98,3.1,1.29,3.14,2.98Z"/>
    <path class="cls-4" d="m456.64,155.45c0,7.02-4.98,10.23-10.12,10.23-5.61,0-9.92-3.68-9.92-9.88s4.08-10.19,10.27-10.19c5.84,0,9.76,4.04,9.76,9.84Zm-13.88.2c0,3.29,1.37,5.76,3.92,5.76,2.35,0,3.8-2.31,3.8-5.8,0-2.82-1.1-5.72-3.8-5.72s-3.92,2.94-3.92,5.76Z"/>
    <path class="cls-4" d="m459.15,152.4c0-2.82-.04-4.67-.16-6.31h5.1l.23,3.53h.16c.98-2.82,3.29-4,5.18-4,.55,0,.82.04,1.25.12v5.61c-.47-.08-.94-.16-1.61-.16-2.2,0-3.69,1.18-4.08,3.02-.08.39-.12.86-.12,1.33v9.72h-5.96v-12.86Z"/>
    <path class="cls-4" d="m469.89,162.08c0-2.16,1.45-3.65,3.53-3.65s3.45,1.45,3.49,3.65c0,2.08-1.41,3.61-3.57,3.61-2,0-3.45-1.53-3.45-3.61Z"/>
  </g>
  <rect class="cls-1" x="19.12" y="137.42" width="458.77" height="36.26"/>
</svg>